Coordinates
version=1
nRows=27
nColumns=38
inDegrees=no

Units are S.I. units (second, meters, Newtons, ...)
If the header above contains a line with 'inDegrees', this indicates whether rotational values are in degrees (yes) or radians (no).

endheader
time	pelvis_tilt	pelvis_list	pelvis_rotation	pelvis_tx	pelvis_ty	pelvis_tz	hip_flexion_r	hip_adduction_r	hip_rotation_r	knee_angle_r	ankle_angle_r	subtalar_angle_r	mtp_angle_r	hip_flexion_l	hip_adduction_l	hip_rotation_l	knee_angle_l	ankle_angle_l	subtalar_angle_l	mtp_angle_l	lumbar_extension	lumbar_bending	lumbar_rotation	arm_flex_r	arm_add_r	arm_rot_r	elbow_flex_r	pro_sup_r	wrist_flex_r	wrist_dev_r	arm_flex_l	arm_add_l	arm_rot_l	elbow_flex_l	pro_sup_l	wrist_flex_l	wrist_dev_l
1.08	-3.12262	1.41982	-1.65382	0.587248	0.867025	1.06692	0.000231335	0.0401728	-0.149327	0.50835	-0.0648204	0	0	0.149373	-0.0617643	-0.297138	1.20008	-0.101297	0	0	-0.349638	0.0733557	-0.0482919	-0.156552	-0.134607	-0.49286	0.486626	0.756648	0	0	-0.0885359	-0.585461	0.667948	0.783157	0.999779	0	0
1.09	-3.10882	1.41743	-1.6722	0.588556	0.877595	1.06754	-0.0188045	0.0378709	-0.150174	0.497694	-0.0619853	0	0	0.162075	-0.0652492	-0.314524	1.17358	-0.0971554	0	0	-0.353064	0.0687384	-0.0450492	-0.15302	-0.13453	-0.493641	0.481799	0.757421	0	0	-0.106671	-0.573867	0.655014	0.777525	1.00652	0	0
1.1	-3.09631	1.41343	-1.68952	0.589822	0.888133	1.06809	-0.0393921	0.0352757	-0.150906	0.486982	-0.0581288	0	0	0.171422	-0.0687596	-0.333787	1.14314	-0.0956794	0	0	-0.358332	0.0639657	-0.0409141	-0.152814	-0.137882	-0.47818	0.480839	0.736369	0	0	-0.116011	-0.569413	0.671783	0.773521	0.982836	0	0
1.11	-3.08281	1.41044	-1.70816	0.591019	0.8987	1.0684	-0.0586447	0.0322369	-0.151404	0.476147	-0.0546597	0	0	0.180696	-0.0713443	-0.353427	1.10942	-0.0962079	0	0	-0.362469	0.0589244	-0.0378058	-0.149996	-0.137852	-0.477995	0.478196	0.735434	0	0	-0.13319	-0.557783	0.660922	0.767074	0.983567	0	0
1.12	-3.06983	1.40847	-1.72647	0.592149	0.909275	1.06845	-0.0765727	0.0290449	-0.151786	0.46546	-0.0521389	0	0	0.189716	-0.0728304	-0.37273	1.07199	-0.0967488	0	0	-0.366268	0.0542483	-0.0321531	-0.147814	-0.134401	-0.493641	0.477962	0.748355	0	0	-0.144831	-0.547453	0.661566	0.758986	0.976886	0	0
1.13	-3.05958	1.40636	-1.74217	0.59324	0.919858	1.06833	-0.0943989	0.026026	-0.15199	0.455507	-0.0487066	0	0	0.196509	-0.0732823	-0.391562	1.03062	-0.0978367	0	0	-0.369574	0.0497415	-0.0283993	-0.146562	-0.134375	-0.492565	0.478722	0.745217	0	0	-0.158717	-0.536524	0.658766	0.750965	0.967776	0	0
1.14	-3.05118	1.40506	-1.75613	0.594277	0.930471	1.06796	-0.11113	0.0232744	-0.151996	0.446657	-0.045397	0	0	0.202697	-0.0726284	-0.408512	0.98602	-0.0996387	0	0	-0.372031	0.0455487	-0.0246142	-0.146212	-0.134437	-0.49105	0.481173	0.742091	0	0	-0.172892	-0.524698	0.653716	0.742288	0.959646	0	0
1.15	-3.04634	1.40486	-1.76624	0.595211	0.941183	1.06734	-0.126755	0.0211446	-0.151848	0.438107	-0.0416353	0	0	0.20877	-0.0713067	-0.422481	0.938805	-0.102989	0	0	-0.372099	0.0418337	-0.0256715	-0.143143	-0.136635	-0.480146	0.479867	0.7373	0	0	-0.201847	-0.501108	0.599463	0.731531	0.992569	0	0
1.16	-3.0461	1.40337	-1.77104	0.596056	0.951841	1.06665	-0.144405	0.0195124	-0.152936	0.427979	-0.0375687	0	0	0.211493	-0.0690475	-0.435242	0.886933	-0.108863	0	0	-0.374949	0.0393508	-0.0215776	-0.147864	-0.14349	-0.449039	0.486955	0.703263	0	0	-0.206444	-0.496152	0.626348	0.723046	0.953401	0	0
1.17	-3.04674	1.40409	-1.77407	0.596818	0.962554	1.06563	-0.159303	0.0185037	-0.154614	0.419145	-0.0348366	0	0	0.215656	-0.0659477	-0.44497	0.832905	-0.112912	0	0	-0.375384	0.0371726	-0.0192572	-0.146734	-0.143865	-0.447915	0.488294	0.704044	0	0	-0.219374	-0.483097	0.619272	0.712453	0.951636	0	0
1.18	-3.04753	1.40535	-1.77664	0.597499	0.973307	1.06445	-0.173632	0.017557	-0.155876	0.410221	-0.0313847	0	0	0.218885	-0.0612635	-0.451146	0.775235	-0.118436	0	0	-0.374997	0.0351456	-0.0178356	-0.145169	-0.14437	-0.446772	0.488845	0.7056	0	0	-0.232658	-0.468743	0.608109	0.700838	0.949046	0	0
1.19	-3.0471	1.40765	-1.78046	0.598121	0.98409	1.06301	-0.186218	0.0164867	-0.156444	0.402772	-0.0286936	0	0	0.222101	-0.0552728	-0.453501	0.715474	-0.122138	0	0	-0.374786	0.0332498	-0.0123495	-0.144273	-0.140019	-0.468509	0.4912	0.724947	0	0	-0.238584	-0.458444	0.615706	0.689009	0.93633	0	0
1.2	-3.04524	1.41048	-1.78465	0.598662	0.994845	1.06135	-0.197519	0.0152056	-0.158173	0.39713	-0.0241586	0	0	0.225086	-0.0475374	-0.448811	0.653943	-0.127807	0	0	-0.372848	0.0310735	-0.0110023	-0.143489	-0.140779	-0.466201	0.492303	0.720538	0	0	-0.248513	-0.446874	0.614933	0.677383	0.929174	0	0
1.21	-3.04342	1.41398	-1.78806	0.599173	1.00564	1.05949	-0.208011	0.0140949	-0.160799	0.391886	-0.019242	0	0	0.22783	-0.0390255	-0.437393	0.591693	-0.133614	0	0	-0.370181	0.02897	-0.0102941	-0.142768	-0.141293	-0.464256	0.493533	0.715854	0	0	-0.258578	-0.435167	0.612044	0.665627	0.924915	0	0
1.22	-3.04048	1.41875	-1.79236	0.599656	1.01657	1.05745	-0.216985	0.0131002	-0.163756	0.386999	-0.0139524	0	0	0.230607	-0.0299418	-0.419684	0.529241	-0.139851	0	0	-0.364502	0.0263576	-0.0150897	-0.138513	-0.143792	-0.451591	0.488889	0.711592	0	0	-0.282808	-0.4105	0.551588	0.652129	0.963204	0	0
1.23	-3.03892	1.42266	-1.79538	0.600122	1.0275	1.05532	-0.22613	0.0119435	-0.166917	0.383734	-0.00881441	0	0	0.231601	-0.0204685	-0.399325	0.468044	-0.145172	0	0	-0.360528	0.024203	-0.0146522	-0.142748	-0.151995	-0.414769	0.492886	0.672911	0	0	-0.286777	-0.406647	0.577686	0.642978	0.923273	0	0
1.24	-3.03683	1.42695	-1.79955	0.600625	1.03853	1.05308	-0.233822	0.0103532	-0.170466	0.382784	-0.00420299	0	0	0.232198	-0.0109383	-0.377976	0.40922	-0.148328	0	0	-0.35647	0.0215759	-0.0140607	-0.141692	-0.152018	-0.413535	0.49255	0.672908	0	0	-0.297019	-0.39393	0.567158	0.630893	0.924083	0	0
1.25	-3.03576	1.43098	-1.80403	0.601167	1.04963	1.0508	-0.24088	0.00813977	-0.174834	0.3836	-0.000541426	0	0	0.232122	-0.00250003	-0.358526	0.355602	-0.148464	0	0	-0.353815	0.0188528	-0.00911457	-0.14031	-0.146367	-0.438602	0.493163	0.696975	0	0	-0.301178	-0.385371	0.574566	0.618917	0.915695	0	0
1.26	-3.03583	1.4343	-1.80826	0.601708	1.0609	1.04862	-0.248415	0.00545457	-0.178036	0.385039	0.0033423	0	0	0.229932	0.00566056	-0.338789	0.304436	-0.15066	0	0	-0.350452	0.0156766	-0.00625774	-0.139976	-0.147807	-0.432897	0.492454	0.691573	0	0	-0.307151	-0.375704	0.578052	0.606098	0.910735	0	0
1.27	-3.03654	1.4361	-1.81287	0.602276	1.07227	1.04661	-0.256981	0.00186161	-0.179714	0.387642	0.00612643	0	0	0.226176	0.0127388	-0.322072	0.260099	-0.153735	0	0	-0.348686	0.0118499	-0.00265312	-0.140006	-0.149403	-0.426537	0.492082	0.686218	0	0	-0.312695	-0.366773	0.579951	0.594787	0.902898	0	0
1.28	-3.03471	1.43661	-1.82082	0.60287	1.08378	1.04475	-0.266339	-0.0026206	-0.180631	0.391109	0.00891906	0	0	0.222085	0.0191158	-0.308583	0.225388	-0.157574	0	0	-0.347211	0.00659962	-0.00245561	-0.136505	-0.151683	-0.415413	0.486401	0.685711	0	0	-0.329125	-0.344144	0.521024	0.579268	0.954582	0	0
1.29	-3.03737	1.43317	-1.82515	0.60354	1.09528	1.04319	-0.280022	-0.00756579	-0.179825	0.393846	0.0105601	0	0	0.215279	0.0235296	-0.298805	0.20347	-0.158083	0	0	-0.352323	0.00161259	0.00768092	-0.149677	-0.167108	-0.350742	0.499383	0.610446	0	0	-0.3188	-0.352312	0.593995	0.571578	0.888024	0	0
1.3	-3.03605	1.43026	-1.83415	0.604415	1.10702	1.04171	-0.29251	-0.0129655	-0.175848	0.397657	0.0107272	0	0	0.211182	0.0263728	-0.297352	0.19504	-0.155871	0	0	-0.355155	-0.00508924	0.0138031	-0.149683	-0.165468	-0.354489	0.49979	0.603896	0	0	-0.322574	-0.345319	0.592486	0.561121	0.886221	0	0
1.31	-3.03129	1.42672	-1.84665	0.605335	1.11897	1.0404	-0.305343	-0.0190805	-0.169562	0.402199	0.00996932	0	0	0.207082	0.0293988	-0.29936	0.194969	-0.154769	0	0	-0.357766	-0.0127464	0.0197756	-0.150265	-0.163651	-0.357421	0.499703	0.599759	0	0	-0.326067	-0.338734	0.590617	0.550069	0.886342	0	0
1.32	-3.0266	1.42276	-1.85896	0.606224	1.13113	1.03924	-0.318117	-0.0254799	-0.161694	0.407264	0.00787573	0	0	0.203364	0.0317352	-0.30474	0.203966	-0.155625	0	0	-0.360398	-0.0204837	0.026297	-0.152243	-0.162025	-0.359662	0.499844	0.598443	0	0	-0.328418	-0.332172	0.588896	0.53756	0.889204	0	0
1.33	-3.02393	1.41906	-1.86884	0.606994	1.14355	1.03814	-0.330217	-0.0317373	-0.152774	0.413343	0.00437956	0	0	0.200369	0.0328348	-0.312062	0.221704	-0.157707	0	0	-0.362126	-0.0275762	0.0325317	-0.154973	-0.160391	-0.362377	0.499864	0.598944	0	0	-0.33067	-0.32627	0.585631	0.526011	0.891585	0	0
1.34	-3.02446	1.41539	-1.87473	0.607623	1.15626	1.03712	-0.341736	-0.0378884	-0.143305	0.42016	6.16598e-05	0	0	0.197044	0.0331642	-0.318676	0.245079	-0.160736	0	0	-0.362899	-0.033857	0.0376275	-0.157336	-0.158586	-0.365993	0.498548	0.600708	0	0	-0.333301	-0.321034	0.581976	0.515078	0.896404	0	0
